<svg width="128" height="128" viewBox="0 0 128 128" fill="none" xmlns="http://www.w3.org/2000/svg">
<path d="M14.9849 27.7123C14.7479 20.8973 20.0569 14.6133 27.2339 14.6133H100.774C107.951 14.6133 113.26 20.8973 113.023 27.7123C112.795 34.2583 113.091 42.7383 115.225 49.6523C117.366 56.5883 120.976 60.9713 126.889 61.5353V67.9223C120.976 68.4863 117.366 72.8693 115.225 79.8053C113.091 86.7193 112.795 95.1993 113.023 101.745C113.26 108.56 107.951 114.843 100.774 114.843H27.2339C20.0569 114.843 14.7479 108.559 14.9849 101.745C15.2129 95.1993 14.9169 86.7193 12.7819 79.8053C10.6419 72.8703 7.02189 68.4863 1.10889 67.9223V61.5353C7.02189 60.9723 10.6419 56.5883 12.7819 49.6523C14.9169 42.7383 15.2119 34.2583 14.9849 27.7123Z" fill="url(#paint0_linear_3_6758)"/>
<g filter="url(#filter0_d_3_6758)">
<path d="M67.1097 91.736C78.7286 91.736 85.7302 86.047 85.7302 76.6635C85.7302 69.5705 80.7344 64.4355 73.3165 63.6226V63.3271C78.7665 62.4405 83.0432 57.3794 83.0432 51.7273C83.0432 43.6738 76.685 38.4277 66.9962 38.4277H45.1963V91.736H67.1097ZM53.674 45.1883H64.9525C71.0837 45.1883 74.5654 47.922 74.5654 52.8723C74.5654 58.1552 70.516 61.1105 63.1737 61.1105H53.674V45.1883ZM53.674 84.9754V67.4277H64.8766C72.9001 67.4277 77.0633 70.3829 77.0633 76.1461C77.0633 81.9091 73.0138 84.9754 65.3687 84.9754H53.674Z" fill="url(#paint1_linear_3_6758)"/>
<path d="M67.1097 91.736C78.7286 91.736 85.7302 86.047 85.7302 76.6635C85.7302 69.5705 80.7344 64.4355 73.3165 63.6226V63.3271C78.7665 62.4405 83.0432 57.3794 83.0432 51.7273C83.0432 43.6738 76.685 38.4277 66.9962 38.4277H45.1963V91.736H67.1097ZM53.674 45.1883H64.9525C71.0837 45.1883 74.5654 47.922 74.5654 52.8723C74.5654 58.1552 70.516 61.1105 63.1737 61.1105H53.674V45.1883ZM53.674 84.9754V67.4277H64.8766C72.9001 67.4277 77.0633 70.3829 77.0633 76.1461C77.0633 81.9091 73.0138 84.9754 65.3687 84.9754H53.674Z" stroke="white" stroke-width="0.24566"/>
</g>
<defs>
<filter id="filter0_d_3_6758" x="41.1427" y="35.3568" width="48.6409" height="61.4148" filterUnits="userSpaceOnUse" color-interpolation-filters="sRGB">
<feFlood flood-opacity="0" result="BackgroundImageFix"/>
<feColorMatrix in="SourceAlpha" type="matrix" values="0 0 0 0 0 0 0 0 0 0 0 0 0 0 0 0 0 0 127 0" result="hardAlpha"/>
<feOffset dy="0.98264"/>
<feGaussianBlur stdDeviation="1.96528"/>
<feColorMatrix type="matrix" values="0 0 0 0 0 0 0 0 0 0 0 0 0 0 0 0 0 0 0.15 0"/>
<feBlend mode="normal" in2="BackgroundImageFix" result="effect1_dropShadow_3_6758"/>
<feBlend mode="normal" in="SourceGraphic" in2="effect1_dropShadow_3_6758" result="shape"/>
</filter>
<linearGradient id="paint0_linear_3_6758" x1="19.7995" y1="17.2659" x2="129.708" y2="104.513" gradientUnits="userSpaceOnUse">
<stop stop-color="#9013FE"/>
<stop offset="1" stop-color="#6610F2"/>
</linearGradient>
<linearGradient id="paint1_linear_3_6758" x1="49.0315" y1="41.9358" x2="73.5975" y2="83.4842" gradientUnits="userSpaceOnUse">
<stop stop-color="white"/>
<stop offset="1" stop-color="#F1E5FC"/>
</linearGradient>
</defs>
</svg>
