<svg width="128" height="128" viewBox="0 0 128 128" fill="none" xmlns="http://www.w3.org/2000/svg">
<path d="M8.75977 1L18.8148 113.883L63.9328 126.463L109.177 113.837L119.24 1H8.75977ZM98.3508 26.862L95.0038 64.467L95.0138 64.67L94.9998 65.137V65.133L92.6218 91.427L92.3598 93.763L63.9998 101.607V101.608L63.9778 101.627L35.6668 93.739L33.7498 72H47.6328L48.6178 83.054L64.0038 87.224L63.9998 87.232V87.23L79.4428 83.001L81.0748 65H48.7918L48.5148 61.957L47.8838 54.828L47.5528 51H82.3018L83.5658 37H30.6398L30.3628 33.959L29.7328 26.828L29.4008 23H98.6818L98.3508 26.862Z" fill="#1572B6"/>
</svg>
