<svg width="128" height="128" viewBox="0 0 128 128" fill="none" xmlns="http://www.w3.org/2000/svg">
<path d="M76.7701 68.974C77.4673 68.4308 78.1374 67.8538 78.7781 67.245C77.1111 67.653 75.4151 67.662 73.7051 67.506C71.6561 67.534 74.0931 68.562 76.7701 68.974ZM84.7101 64.762C85.9321 63.077 86.8211 61.232 87.1351 59.324C86.8611 60.683 86.1241 61.858 85.4281 63.097C81.5951 65.511 85.0681 61.664 85.4261 60.202C81.3061 65.39 84.8601 63.313 84.7101 64.762ZM88.7731 54.192C89.0211 50.499 88.0461 51.667 87.7181 53.075C88.1011 53.274 88.4031 55.678 88.7731 54.192ZM65.9301 3.72198C67.0241 3.91798 68.2951 4.06898 68.1161 4.32998C69.3131 4.06798 69.5851 3.82598 65.9301 3.72198ZM68.0631 4.42598L68.1161 4.33098L67.3431 4.48998L68.0631 4.42598ZM65.2701 80.73C62.3191 79.349 59.6171 77.262 57.3961 74.709C58.5741 76.435 59.8471 78.112 61.4921 79.43C58.7091 78.488 54.9931 72.688 53.9081 72.452C58.7041 81.039 73.3651 87.511 81.0431 84.3C77.4901 84.43 72.9781 84.373 68.9861 82.898C67.4501 82.107 65.4131 80.543 65.3971 80.029C65.3201 80.23 65.1911 80.429 65.2701 80.73ZM65.4261 79.933L65.3961 80.03L65.4261 79.933ZM109.475 46.345C109.508 44.463 109.998 45.359 110.188 44.896C109.818 44.683 108.849 43.24 108.258 40.472C108.686 39.821 109.401 42.158 109.984 42.253C109.609 40.052 108.964 38.375 108.939 36.685C107.239 33.132 108.337 37.159 106.958 35.16C105.148 29.514 108.46 33.849 108.683 31.285C111.426 35.259 112.991 41.419 113.709 43.97C113.16 40.86 112.276 37.847 111.195 34.93C112.028 35.282 109.853 28.531 112.278 33.001C109.687 23.47 101.193 14.565 93.3771 10.387C94.3331 11.262 95.5411 12.362 95.1071 12.533C91.2201 10.219 91.9031 10.038 91.3471 9.06098C88.1801 7.77298 87.9721 9.16398 85.8751 9.06298C79.9071 5.89798 78.7571 6.23398 73.2641 4.24998L73.5151 5.41798C69.5601 4.10098 68.9081 5.91798 64.6351 5.42198C64.3741 5.21898 66.0041 4.68698 67.3451 4.49198C63.5221 4.99598 63.7011 3.73898 59.9611 4.63098C60.8821 3.98498 61.8571 3.55598 62.8401 3.00598C59.7241 3.19498 55.3991 4.81998 56.7341 3.34198C51.6501 5.61298 42.6191 8.79798 37.5511 13.55L37.3921 12.485C35.0701 15.272 27.2661 20.81 26.6451 24.42L26.0241 24.565C24.8151 26.611 24.0331 28.93 23.0751 31.035C21.4941 33.728 20.7581 32.071 20.9841 32.494C17.8751 38.796 16.3311 44.092 14.9981 48.434C15.9491 49.855 15.0201 56.987 15.3801 62.694C13.8191 90.884 35.1641 118.253 58.4951 124.573C61.9151 125.795 67.0011 125.749 71.3271 125.875C66.2221 124.415 65.5621 125.102 60.5921 123.367C57.0051 121.678 56.2191 119.75 53.6781 117.546L54.6841 119.323C49.7021 117.56 51.7871 117.141 47.7331 115.857L48.8071 114.455C47.1921 114.332 44.5301 111.734 43.8031 110.294L42.0361 110.363C39.9141 107.745 38.7831 105.858 38.8651 104.396L38.2941 105.414C37.6471 104.303 30.4871 95.592 34.2021 97.621C33.5111 96.989 32.5941 96.593 31.5991 94.786L32.3551 93.921C30.5671 91.622 29.0641 88.672 29.1781 87.69C30.1321 88.979 30.7941 89.219 31.4491 89.44C26.9341 78.236 26.6811 88.822 23.2611 78.035L23.9841 77.977C23.4291 77.141 23.0931 76.234 22.6471 75.344L22.9611 72.206C19.7111 68.447 22.0511 56.224 22.5211 49.52C22.8461 46.793 25.2341 43.892 27.0501 39.342L25.9441 39.151C28.0591 35.461 38.0231 24.331 42.6371 24.904C44.8721 22.095 42.1941 24.894 41.7571 24.186C46.6671 19.104 48.2101 20.595 51.5241 19.682C55.0971 17.561 48.4581 20.509 50.1511 18.873C56.3291 17.295 54.5291 15.286 62.5891 14.485C63.4401 14.969 60.6161 15.232 59.9071 15.86C65.0551 13.342 76.1961 13.914 83.4321 17.257C91.8291 21.182 101.264 32.782 101.636 43.696L102.059 43.809C101.846 48.148 102.724 53.165 101.201 57.774L102.238 55.592C102.359 58.908 101.267 60.517 100.283 63.365L98.5111 64.249C97.0611 67.066 98.6511 66.038 97.6141 68.279C95.3491 70.292 90.7431 74.577 89.2691 74.968C88.1921 74.944 89.9981 73.699 90.2331 73.209C87.2041 75.291 87.8021 76.334 83.1681 77.599L83.0321 77.297C71.6001 82.675 55.7201 72.017 55.9301 57.475C55.8071 58.399 55.5831 58.167 55.3291 58.542C54.7401 51.059 58.7851 43.544 65.6071 40.477C72.2811 37.172 80.1041 38.529 84.8831 42.984C82.2581 39.544 77.0321 35.899 70.8371 36.24C64.7711 36.336 59.0951 40.192 57.2011 44.377C54.0921 46.334 53.7321 51.921 52.3771 52.942C50.5551 66.336 55.8051 72.121 64.6861 78.927C65.4041 79.411 65.4871 79.684 65.4251 79.932L65.4361 79.912C75.9131 83.827 86.7371 82.878 95.8021 75.61C98.1081 73.814 100.627 70.758 101.355 70.715C100.259 72.364 101.543 71.508 100.7 72.964C102.998 69.257 99.7011 71.455 103.075 66.563L104.322 68.279C103.859 65.204 108.141 61.467 107.707 56.603C108.689 55.115 108.804 58.204 107.76 61.627C109.206 57.829 108.141 57.219 108.514 54.085C108.915 55.138 109.442 56.258 109.713 57.369C108.77 53.699 110.68 51.188 111.152 49.056C110.69 48.852 109.701 50.68 109.475 46.345ZM51.0371 71.758C52.3851 73.589 53.4541 75.572 55.1751 77.003C53.9371 74.586 53.0181 73.588 51.3251 70.32L51.0371 71.758ZM54.5101 70.195C53.7971 69.406 53.3741 68.457 52.9021 67.51C53.3551 69.173 54.2791 70.601 55.1411 72.055L54.5101 70.195ZM107.01 70.102C109.019 66.313 110.331 62.1944 110.885 57.942L110.583 58.698C110.027 62.6698 108.82 66.5228 107.01 70.102ZM71.2141 2.12598C69.2971 2.28698 67.3891 2.38298 65.5051 2.62498L66.3351 2.73898C67.7221 2.22998 69.7431 2.45998 71.2141 2.12598ZM18.2271 30.775C19.6511 27.568 17.8321 29.626 17.6751 28.768C17.8961 31.614 15.4851 32.692 18.2271 30.775ZM15.3891 38.012C13.6141 40.281 14.5721 40.764 14.3851 42.308C15.0271 40.336 15.1451 39.152 15.3891 38.012Z" fill="#A80030"/>
</svg>
