<svg width="128" height="128" viewBox="0 0 128 128" fill="none" xmlns="http://www.w3.org/2000/svg">
<path d="M47.6169 98.1199C28.4249 103.482 59.2939 114.559 83.7319 104.089C79.7289 102.533 76.8579 100.738 76.8579 100.738C65.9609 102.798 60.9059 102.96 51.0139 101.83C42.8499 100.895 47.6169 98.1199 47.6169 98.1199ZM80.8059 87.6599C66.3619 90.4389 58.0189 90.3499 47.4519 89.2599C39.2809 88.4149 44.6299 84.4549 44.6299 84.4549C23.4929 91.4709 56.3969 99.4319 85.9389 90.7909C82.7989 89.6849 80.8059 87.6599 80.8059 87.6599ZM92.1249 27.0849C92.1259 27.0849 49.3939 37.7539 69.8019 61.2719C75.8259 68.2069 68.2219 74.4419 68.2219 74.4419C68.2219 74.4419 83.5109 66.5509 76.4909 56.6649C69.9319 47.4499 64.9039 42.8719 92.1249 27.0849ZM102.123 108.229C102.123 108.229 105.652 111.139 98.2349 113.388C84.1329 117.66 39.5289 118.948 27.1399 113.559C22.6899 111.621 31.0389 108.934 33.6659 108.367C36.4049 107.774 37.9689 107.882 37.9689 107.882C33.0169 104.395 5.95587 114.732 24.2269 117.697C74.0479 125.773 115.044 114.06 102.123 108.229ZM84.9999 77.8959C87.3949 76.2619 90.7029 74.8429 90.7029 74.8429C90.7029 74.8429 81.2789 76.5279 71.8899 77.3169C60.3959 78.2809 48.0669 78.4709 41.8779 77.6429C27.2259 75.6839 49.9109 70.2949 49.9109 70.2949C49.9109 70.2949 41.0989 69.6989 30.2669 74.9389C17.4549 81.1339 61.9579 83.9579 84.9999 77.8959ZM90.6089 93.0409C90.5009 93.3309 90.1409 93.6569 90.1409 93.6569C121.414 85.4359 109.916 64.6779 94.9629 69.9319C93.6509 70.3959 92.9629 71.4749 92.9629 71.4749C92.9629 71.4749 93.7919 71.1409 95.6409 70.7549C103.2 69.1799 114.03 80.8739 90.6089 93.0409ZM64.1809 70.0689C59.5669 59.6399 43.9209 50.5159 64.1879 34.5099C89.4589 14.5629 76.4919 1.58691 76.4919 1.58691C81.7219 22.1949 58.0409 28.4199 49.4929 41.2539C43.6719 49.9989 52.3499 59.3959 64.1809 70.0689ZM91.4549 121.817C72.2679 125.429 48.6009 125.008 34.5679 122.691C34.5679 122.691 37.4419 125.071 52.2139 126.022C74.6899 127.459 109.214 125.222 110.03 114.586C110.031 114.586 108.46 118.618 91.4549 121.817Z" fill="#EA2D2E"/>
</svg>
