<svg width="128" height="128" viewBox="0 0 128 128" fill="none" xmlns="http://www.w3.org/2000/svg">
<path d="M125.477 122.783L122.861 120.246C120.382 116.954 117.193 114.062 113.846 111.661C111.177 109.745 105.185 107.157 104.071 104.052L103.866 103.857C105.759 103.643 107.969 102.959 109.716 102.49C112.65 101.704 115.072 101.907 118.102 101.125C119.468 100.735 121.001 100.344 122.001 99.954V99.174C121.001 97.6031 119.574 95.523 117.904 94.101C113.535 90.381 108.863 86.664 103.953 83.564C101.23 81.846 97.9121 80.729 95.0271 79.272C94.0561 78.7811 92.3751 78.526 91.7331 77.71C90.2161 75.778 89.4051 73.328 88.2351 71.077C85.7861 66.36 83.3861 61.209 81.2161 56.246C79.7361 52.862 78.7731 49.526 76.9271 46.49C68.0671 31.923 58.5321 23.132 43.7601 14.49C40.6151 12.652 36.8311 11.927 32.8311 10.977C30.6871 10.848 28.5401 10.717 26.3941 10.586C25.0831 10.04 23.7201 8.43704 22.4921 7.65904C17.5961 4.56704 5.04309 -2.15796 1.41809 6.68404C-0.870907 12.265 4.83809 17.709 6.88009 20.538C8.31509 22.52 10.1501 24.745 11.1731 26.976C11.8481 28.443 11.9631 29.914 12.5401 31.465C13.9581 35.287 15.1911 39.445 17.0271 42.976C17.9541 44.764 18.9761 46.646 20.1491 48.244C20.8671 49.225 22.0991 49.657 22.2941 51.171C21.0901 52.857 21.0211 55.475 20.3441 57.611C17.2941 67.226 18.4461 79.178 22.8811 86.294C24.2411 88.48 27.4471 93.165 31.8561 91.367C35.7121 89.797 35.0821 84.929 36.1851 80.635C36.4341 79.663 36.0001 78.947 37.0001 78.294V78.489C38.0233 80.8628 39.1178 83.2052 40.2821 85.513C42.8821 89.7 47.1711 94.075 51.0801 97.027C53.1071 98.558 55.0001 101.204 57.0001 102.1V101.999H57.2211C56.7141 100.999 55.9191 100.832 55.2711 100.195C53.7441 98.699 52.0451 96.813 50.7841 95.098C47.2281 90.271 44.0861 84.976 41.2231 79.476C39.8551 76.85 38.6661 73.947 37.5141 71.275C37.0711 70.245 37.0761 68.683 36.1501 68.15C34.8871 70.108 33.0281 71.69 32.0511 74.003C30.4901 77.699 30.2891 82.207 29.7101 86.88C29.3671 87.002 29.5201 86.918 29.3191 87.074C26.6011 86.419 25.6471 83.622 24.6361 81.221C22.0811 75.151 21.6071 65.378 23.8551 58.392C24.4371 56.583 27.0661 50.891 26.0011 49.22C25.4931 47.555 23.8171 46.59 22.8801 45.317C21.7191 43.743 20.5611 41.671 19.7571 39.853C17.6661 35.122 16.6911 29.809 14.4891 25.025C13.4361 22.738 11.6571 20.423 10.1961 18.391C8.57909 16.138 6.76709 14.479 5.51209 11.756C5.06709 10.788 4.46109 9.23804 5.12209 8.24304C5.33209 7.57204 5.62909 7.29204 6.29309 7.07304C7.42609 6.20004 10.5761 7.36304 11.7561 7.85204C14.8851 9.15204 17.4971 10.352 20.1481 12.108C21.4191 12.952 22.7071 13.998 24.2451 14.998H26.0011C28.7481 14.998 31.8251 15.23 34.3921 16.01C38.9271 17.389 42.9921 19.552 46.6841 21.883C57.9301 28.985 67.1251 39.103 73.4161 51.161C74.4281 53.103 74.8661 54.96 75.7571 57.019C77.5551 61.172 79.8211 65.447 81.6101 69.508C83.3961 73.5611 85.1361 77.65 87.6601 81.022C88.9871 82.7941 94.1111 83.746 96.4401 84.731C98.0731 85.4201 100.748 86.14 102.294 87.071C105.247 88.853 108.108 90.9751 110.88 92.926C112.264 93.9 116.52 96.04 116.733 97.804C109.87 97.616 104.629 98.256 100.148 100.145C98.8751 100.682 96.8431 100.697 96.6351 102.292C97.3351 103.025 97.4441 104.121 98.0001 105.023C99.0691 106.753 100.876 109.075 102.488 110.291C104.25 111.621 106.064 113.042 107.952 114.193C111.311 116.24 115.059 117.41 118.293 119.461C120.199 120.671 122.251 122.194 124.108 123.558C125.028 124.233 124.999 125.282 126.999 125.705V125.511C126 124.716 126.053 123.618 125.477 122.783ZM29.5141 23.465C28.0831 23.438 27.0001 23.622 26.0001 23.854V24H26.1981C26.8811 25 28.0861 26.33 28.9291 27.538L30.8811 31.646L31.0741 31.459C32.2831 30.606 32.8371 29.248 32.8301 27.168C32.3471 26.659 32.2741 26.022 31.8561 25.414C31.2981 24.605 30.2171 24.146 29.5141 23.465Z" fill="#00618A"/>
</svg>
