<svg width="128" height="128" viewBox="0 0 128 128" fill="none" xmlns="http://www.w3.org/2000/svg">
<path d="M63.9998 33.0391C30.2598 33.0391 2.90576 46.9011 2.90576 64.0001C2.90576 81.0991 30.2598 94.9611 63.9998 94.9611C97.7398 94.9611 125.094 81.0991 125.094 64.0001C125.094 46.9011 97.7398 33.0391 63.9998 33.0391ZM48.1028 70.0321C46.6448 71.3961 45.0258 71.9591 43.2428 72.5391C41.4598 73.1201 39.1908 73.0001 36.4318 73.0001H30.1788L28.4458 83.0001H21.1448L27.6598 49.0001H41.6998C45.9238 49.0001 49.0048 50.2151 50.9418 52.4321C52.8788 54.6491 53.4608 57.7961 52.6888 61.7691C52.3698 63.4061 51.8328 64.9281 51.0748 66.2841C50.2893 67.6832 49.286 68.9484 48.1028 70.0321ZM69.4138 73.0001L72.2948 58.5801C72.6228 56.8921 72.5028 55.6381 71.9338 55.0251C71.3638 54.4111 70.1518 54.0001 68.2988 54.0001H62.5088L58.7778 73.0001H51.5338L58.0488 40.0001H65.2928L63.5608 49.0001H70.0138C74.0748 49.0001 76.8748 49.8151 78.4158 51.2311C79.9568 52.6471 80.4188 54.5871 79.8028 57.7591L76.7718 73.0001H69.4138ZM109.673 61.8221C109.355 63.4591 108.817 64.9551 108.06 66.3101C107.302 67.6671 106.312 68.9081 105.089 70.0321C103.631 71.3961 102.011 71.9591 100.229 72.5391C98.4468 73.1201 96.1758 73.0001 93.4168 73.0001H87.1638L85.4318 83.0001H78.1308L84.6448 49.0001H98.6858C102.91 49.0001 105.991 50.2151 107.927 52.4321C109.862 54.6491 110.445 57.8501 109.673 61.8221ZM95.9188 54.0001H90.9178L88.1908 68.0001H92.6328C95.5748 68.0001 97.7688 67.7101 99.2088 66.6001C100.651 65.4921 101.622 63.7721 102.127 61.1791C102.611 58.6881 102.391 56.7451 101.467 55.7211C100.542 54.6971 98.6928 54.0001 95.9188 54.0001ZM38.9338 54.0001H33.9318L31.2048 68.0001H35.6458C38.5888 68.0001 40.7818 67.7101 42.2228 66.6001C43.6638 65.4921 44.6358 63.7721 45.1398 61.1791C45.6238 58.6881 45.4038 56.7451 44.4798 55.7211C43.5558 54.6971 41.7078 54.0001 38.9338 54.0001Z" fill="#6181B6"/>
</svg>
