<?xml version="1.0" encoding="UTF-8" ?>
<!DOCTYPE svg PUBLIC "-//W3C//DTD SVG 1.1//EN" "http://www.w3.org/Graphics/SVG/1.1/DTD/svg11.dtd">
<svg width="190px" height="55px" viewBox="0 0 1038 269" version="1.1" xmlns="http://www.w3.org/2000/svg">
<g id="#ffffffff">
<path fill="#ffffff" opacity="1.00" d=" M 0.00 0.00 L 1038.00 0.00 L 1038.00 269.00 L 0.00 269.00 L 0.00 0.00 M 651.85 4.74 C 648.05 11.47 649.29 19.85 652.34 26.64 C 656.78 36.22 664.74 43.59 672.77 50.19 C 676.73 53.49 682.58 55.92 687.57 53.70 C 691.81 49.93 692.76 43.80 692.81 38.38 C 691.71 37.98 690.61 37.58 689.52 37.19 C 691.77 33.49 694.01 29.75 695.72 25.76 C 697.35 21.23 697.64 16.32 697.39 11.54 C 691.76 9.50 685.95 7.97 680.28 6.04 C 672.68 3.84 665.14 0.34 657.03 1.17 C 654.55 0.73 652.87 2.77 651.85 4.74 M 703.94 2.98 C 700.17 6.81 700.22 12.60 700.09 17.62 C 700.86 17.79 702.39 18.14 703.15 18.32 C 699.32 23.86 695.11 29.93 695.35 36.98 C 695.39 39.76 694.92 43.50 697.92 45.00 C 707.02 49.71 716.97 52.79 727.08 54.45 C 730.85 54.72 735.13 55.49 738.59 53.59 C 743.15 48.74 744.76 41.38 742.99 34.99 C 741.14 28.59 737.12 23.11 732.98 17.99 C 728.30 12.69 723.34 7.47 717.30 3.72 C 713.40 1.36 707.84 -0.12 703.94 2.98 M 492.70 90.74 C 487.80 95.60 485.78 102.84 486.19 109.61 C 487.57 110.50 488.97 111.38 490.37 112.27 C 487.34 118.47 483.49 124.23 480.41 130.41 C 477.92 135.68 476.54 141.75 477.78 147.54 C 478.69 151.72 482.71 153.83 485.93 156.06 C 485.87 156.73 485.76 158.07 485.70 158.74 C 474.20 162.80 462.06 164.52 450.26 167.50 C 442.12 169.63 433.68 171.29 426.20 175.28 C 424.88 176.20 422.51 177.43 423.48 179.37 C 430.91 180.74 438.52 180.49 446.02 181.35 C 455.70 181.56 465.35 182.66 475.04 182.31 C 479.92 182.34 483.08 178.07 487.24 176.20 C 494.31 172.87 501.27 169.18 508.72 166.75 C 512.98 165.30 518.25 164.94 522.01 167.82 C 518.76 170.57 514.64 171.84 511.17 174.22 C 507.95 176.45 504.31 177.94 501.02 180.04 C 495.11 183.81 488.41 186.04 482.35 189.51 C 482.27 190.56 482.20 191.61 482.13 192.67 C 495.78 193.63 508.99 189.36 522.29 187.08 C 530.19 185.27 538.90 184.68 545.46 179.40 C 550.89 174.86 555.83 169.61 559.40 163.46 C 561.20 160.89 564.29 157.40 567.74 158.90 C 570.84 161.42 572.36 165.28 574.34 168.65 C 577.99 176.49 584.65 183.09 592.93 185.86 C 597.35 187.29 603.02 187.05 606.17 183.18 C 610.30 178.17 611.40 171.38 611.50 165.06 C 611.58 155.67 611.91 145.81 607.86 137.09 C 605.22 131.49 601.81 126.05 596.94 122.14 C 592.12 118.11 584.25 118.30 579.75 122.74 C 573.33 128.63 569.77 136.74 564.62 143.63 C 561.73 147.68 556.85 149.31 552.69 151.67 C 549.35 153.31 546.25 155.78 542.41 156.04 C 542.84 145.90 541.05 135.53 536.43 126.43 C 529.29 113.00 518.81 101.51 506.92 92.13 C 503.07 89.01 496.77 86.92 492.70 90.74 M 583.74 94.78 C 574.60 98.73 565.37 102.50 556.15 106.29 C 557.76 108.74 560.13 112.01 563.51 110.44 C 573.00 106.33 582.34 101.83 592.11 98.41 C 590.80 96.76 589.79 94.74 587.88 93.71 C 586.40 93.40 585.08 94.36 583.74 94.78 M 399.91 222.92 C 394.67 229.54 393.81 239.20 397.06 246.90 C 399.95 253.88 407.70 257.74 415.01 257.52 C 420.80 257.65 426.12 254.93 430.74 251.69 C 430.82 246.84 430.73 241.99 430.84 237.15 C 425.43 237.27 420.03 237.22 414.63 237.19 C 414.61 238.57 414.62 239.96 414.65 241.35 C 418.47 241.40 422.29 241.41 426.11 241.37 C 426.21 243.92 426.20 246.47 426.26 249.03 C 421.53 252.33 415.38 254.52 409.71 252.41 C 404.78 251.14 401.23 246.59 400.55 241.64 C 399.86 236.22 400.12 230.16 403.65 225.69 C 407.41 220.97 414.40 220.24 419.82 222.07 C 423.14 223.19 424.78 226.47 426.00 229.49 C 427.33 229.24 428.65 228.94 429.97 228.60 C 429.46 221.74 422.65 216.85 416.05 217.19 C 410.18 216.65 403.75 218.14 399.91 222.92 M 526.25 217.46 C 526.15 230.60 526.28 243.74 526.19 256.89 C 527.62 256.84 529.05 256.79 530.50 256.74 C 530.37 243.68 530.47 230.62 530.45 217.56 C 529.04 217.52 527.64 217.49 526.25 217.46 M 498.66 217.58 C 498.64 230.66 498.65 243.73 498.65 256.81 C 500.18 256.80 501.71 256.79 503.24 256.78 C 503.25 243.72 503.26 230.67 503.24 217.61 C 501.71 217.55 500.18 217.54 498.66 217.58 M 453.04 236.66 C 454.24 236.70 455.45 236.76 456.66 236.82 C 457.83 234.96 458.81 232.60 461.14 231.96 C 464.00 231.34 467.34 231.29 469.84 233.06 C 471.69 234.45 471.31 237.03 471.56 239.06 C 466.50 240.47 461.02 240.19 456.17 242.27 C 450.87 244.55 450.13 252.82 455.05 255.88 C 460.28 259.07 466.89 257.21 471.40 253.61 C 471.81 254.62 472.23 255.63 472.65 256.64 C 474.06 256.76 475.47 256.85 476.90 256.93 C 475.33 250.01 475.86 242.93 475.78 235.91 C 475.84 233.86 475.34 231.67 473.69 230.32 C 470.53 227.39 465.89 228.29 461.97 228.25 C 457.47 228.32 452.79 231.83 453.04 236.66 M 555.55 231.54 C 550.76 237.04 550.43 245.77 553.98 251.99 C 559.32 260.59 575.30 258.98 577.09 248.36 C 575.56 248.27 574.04 248.22 572.52 248.21 C 571.11 251.15 568.63 254.17 565.00 253.71 C 559.63 254.12 556.17 248.56 556.24 243.72 C 563.28 243.70 570.33 243.62 577.38 243.77 C 577.90 237.79 575.43 230.83 569.37 228.65 C 564.68 227.66 558.99 227.65 555.55 231.54 M 606.51 228.47 C 605.15 229.51 604.07 230.84 602.91 232.08 C 602.71 230.83 602.53 229.59 602.38 228.34 C 601.44 228.40 599.56 228.51 598.62 228.56 C 598.62 237.98 598.61 247.40 598.63 256.82 C 600.15 256.80 601.68 256.79 603.21 256.78 C 603.58 249.90 602.42 242.83 604.00 236.08 C 605.07 232.27 609.42 232.55 612.57 232.65 C 612.95 231.45 613.34 230.26 613.73 229.06 C 611.41 228.32 608.89 227.78 606.51 228.47 M 629.30 228.38 C 632.58 237.24 635.89 246.09 639.23 254.93 C 640.53 257.78 638.84 260.87 637.16 263.15 C 635.34 264.13 633.23 264.16 631.24 264.42 C 631.37 265.52 631.50 266.63 631.61 267.74 C 633.89 267.72 636.25 268.09 638.49 267.49 C 641.10 265.57 642.18 262.36 643.37 259.48 C 647.19 249.14 650.94 238.77 654.75 228.43 C 653.27 228.43 651.81 228.44 650.35 228.44 C 647.42 235.97 644.93 243.66 642.11 251.22 C 639.61 243.62 636.76 236.14 634.20 228.57 C 632.56 228.49 630.93 228.43 629.30 228.38 M 1.21 242.78 C 1.22 244.95 1.22 247.13 1.19 249.31 C 101.13 249.35 201.06 249.32 301.00 249.33 C 326.85 249.22 352.72 249.55 378.57 249.16 C 378.53 247.14 378.54 245.12 378.58 243.11 C 367.09 242.29 355.52 242.97 344.00 242.75 C 229.74 242.77 115.47 242.70 1.21 242.78 M 659.73 242.79 C 659.71 244.95 659.70 247.12 659.71 249.29 C 749.14 249.38 838.57 249.30 928.00 249.33 C 964.34 249.23 1000.68 249.52 1037.02 249.18 C 1037.05 247.09 1037.05 245.01 1036.97 242.92 C 1012.66 242.51 988.32 242.86 964.00 242.75 C 862.57 242.78 761.15 242.68 659.73 242.79 Z" />
<path fill="#ffffff" opacity="1.00" d=" M 654.78 11.74 C 661.23 12.37 667.41 14.38 673.74 15.67 C 671.92 19.77 670.24 23.93 668.99 28.25 C 663.34 23.70 657.91 18.38 654.78 11.74 Z" />
<path fill="#ffffff" opacity="1.00" d=" M 675.25 24.20 C 675.85 21.71 677.86 19.71 680.01 18.43 C 683.63 18.74 686.64 21.05 689.57 23.00 C 687.33 27.26 684.36 32.28 678.98 32.60 C 677.31 30.07 674.75 27.49 675.25 24.20 Z" />
<path fill="#ffffff" opacity="1.00" d=" M 703.13 32.97 C 704.75 28.56 707.79 23.52 713.02 23.19 C 714.83 24.41 716.09 26.31 716.99 28.29 C 718.81 32.09 715.45 37.23 711.19 36.83 C 708.17 36.40 705.69 34.44 703.13 32.97 Z" />
<path fill="#ffffff" opacity="1.00" d=" M 723.81 27.94 C 728.70 32.94 733.77 37.82 738.02 43.40 C 731.55 44.50 725.45 40.64 719.04 40.13 C 720.99 36.22 722.86 32.24 723.81 27.94 Z" />
<path fill="#ffffff" opacity="1.00" d=" M 497.32 120.09 C 501.45 118.35 504.44 123.07 505.49 126.45 C 506.48 131.73 504.98 138.18 500.34 141.35 C 497.41 143.49 493.96 141.32 491.53 139.49 C 489.25 137.63 486.62 135.22 486.74 132.05 C 488.02 126.64 492.69 122.73 497.32 120.09 Z" />
<path fill="#ffffff" opacity="1.00" d=" M 515.22 125.94 C 520.21 127.83 523.28 132.54 526.52 136.51 C 529.60 140.98 533.46 145.58 533.66 151.25 C 526.49 151.62 519.12 151.13 512.33 148.67 C 510.08 147.98 508.47 146.21 507.49 144.14 C 511.40 138.70 513.38 132.30 515.22 125.94 Z" />
<path fill="#ffffff" opacity="1.00" d=" M 583.65 140.77 C 586.29 139.82 589.77 138.61 592.12 140.85 C 596.68 144.89 598.21 151.19 599.06 156.99 C 599.57 158.93 598.67 160.79 598.18 162.63 C 594.00 161.95 589.11 161.30 586.52 157.50 C 584.15 154.07 581.42 150.77 580.00 146.81 C 578.92 144.19 581.20 141.50 583.65 140.77 Z" />
<path fill="#ffffff" opacity="1.00" d=" M 556.39 240.20 C 556.59 235.70 560.18 231.15 565.00 231.55 C 569.63 231.36 572.67 235.95 572.68 240.21 C 567.25 240.22 561.82 240.23 556.39 240.20 Z" />
<path fill="#ffffff" opacity="1.00" d=" M 459.35 245.26 C 463.32 244.01 467.54 243.78 471.53 242.56 C 471.41 245.56 471.63 249.05 469.27 251.32 C 466.26 254.11 460.94 255.29 457.69 252.28 C 455.54 250.21 456.42 246.10 459.35 245.26 Z" />
</g>
<g id="#1b1b1bff">
<path fill="#1b1b1b" opacity="1.00" d=" M 651.85 4.74 C 652.87 2.77 654.55 0.73 657.03 1.17 C 665.14 0.34 672.68 3.84 680.28 6.04 C 685.95 7.97 691.76 9.50 697.39 11.54 C 697.64 16.32 697.35 21.23 695.72 25.76 C 694.01 29.75 691.77 33.49 689.52 37.19 C 690.61 37.58 691.71 37.98 692.81 38.38 C 692.76 43.80 691.81 49.93 687.57 53.70 C 682.58 55.92 676.73 53.49 672.77 50.19 C 664.74 43.59 656.78 36.22 652.34 26.64 C 649.29 19.85 648.05 11.47 651.85 4.74 M 654.78 11.74 C 657.91 18.38 663.34 23.70 668.99 28.25 C 670.24 23.93 671.92 19.77 673.74 15.67 C 667.41 14.38 661.23 12.37 654.78 11.74 M 675.25 24.20 C 674.75 27.49 677.31 30.07 678.98 32.60 C 684.36 32.28 687.33 27.26 689.57 23.00 C 686.64 21.05 683.63 18.74 680.01 18.43 C 677.86 19.71 675.85 21.71 675.25 24.20 Z" />
<path fill="#1b1b1b" opacity="1.00" d=" M 703.94 2.98 C 707.84 -0.12 713.40 1.36 717.30 3.72 C 723.34 7.47 728.30 12.69 732.98 17.99 C 737.12 23.11 741.14 28.59 742.99 34.99 C 744.76 41.38 743.15 48.74 738.59 53.59 C 735.13 55.49 730.85 54.72 727.08 54.45 C 716.97 52.79 707.02 49.71 697.92 45.00 C 694.92 43.50 695.39 39.76 695.35 36.98 C 695.11 29.93 699.32 23.86 703.15 18.32 C 702.39 18.14 700.86 17.79 700.09 17.62 C 700.22 12.60 700.17 6.81 703.94 2.98 M 703.13 32.97 C 705.69 34.44 708.17 36.40 711.19 36.83 C 715.45 37.23 718.81 32.09 716.99 28.29 C 716.09 26.31 714.83 24.41 713.02 23.19 C 707.79 23.52 704.75 28.56 703.13 32.97 M 723.81 27.94 C 722.86 32.24 720.99 36.22 719.04 40.13 C 725.45 40.64 731.55 44.50 738.02 43.40 C 733.77 37.82 728.70 32.94 723.81 27.94 Z" />
<path fill="#1b1b1b" opacity="1.00" d=" M 492.70 90.74 C 496.77 86.92 503.07 89.01 506.92 92.13 C 518.81 101.51 529.29 113.00 536.43 126.43 C 541.05 135.53 542.84 145.90 542.41 156.04 C 546.25 155.78 549.35 153.31 552.69 151.67 C 556.85 149.31 561.73 147.68 564.62 143.63 C 569.77 136.74 573.33 128.63 579.75 122.74 C 584.25 118.30 592.12 118.11 596.94 122.14 C 601.81 126.05 605.22 131.49 607.86 137.09 C 611.91 145.81 611.58 155.67 611.50 165.06 C 611.40 171.38 610.30 178.17 606.17 183.18 C 603.02 187.05 597.35 187.29 592.93 185.86 C 584.65 183.09 577.99 176.49 574.34 168.65 C 572.36 165.28 570.84 161.42 567.74 158.90 C 564.29 157.40 561.20 160.89 559.40 163.46 C 555.83 169.61 550.89 174.86 545.46 179.40 C 538.90 184.68 530.19 185.27 522.29 187.08 C 508.99 189.36 495.78 193.63 482.13 192.67 C 482.20 191.61 482.27 190.56 482.35 189.51 C 488.41 186.04 495.11 183.81 501.02 180.04 C 504.31 177.94 507.95 176.45 511.17 174.22 C 514.64 171.84 518.76 170.57 522.01 167.82 C 518.25 164.94 512.98 165.30 508.72 166.75 C 501.27 169.18 494.31 172.87 487.24 176.20 C 483.08 178.07 479.92 182.34 475.04 182.31 C 465.35 182.66 455.70 181.56 446.02 181.35 C 438.52 180.49 430.91 180.74 423.48 179.37 C 422.51 177.43 424.88 176.20 426.20 175.28 C 433.68 171.29 442.12 169.63 450.26 167.50 C 462.06 164.52 474.20 162.80 485.70 158.74 C 485.76 158.07 485.87 156.73 485.93 156.06 C 482.71 153.83 478.69 151.72 477.78 147.54 C 476.54 141.75 477.92 135.68 480.41 130.41 C 483.49 124.23 487.34 118.47 490.37 112.27 C 488.97 111.38 487.57 110.50 486.19 109.61 C 485.78 102.84 487.80 95.60 492.70 90.74 M 497.32 120.09 C 492.69 122.73 488.02 126.64 486.74 132.05 C 486.62 135.22 489.25 137.63 491.53 139.49 C 493.96 141.32 497.41 143.49 500.34 141.35 C 504.98 138.18 506.48 131.73 505.49 126.45 C 504.44 123.07 501.45 118.35 497.32 120.09 M 515.22 125.94 C 513.38 132.30 511.40 138.70 507.49 144.14 C 508.47 146.21 510.08 147.98 512.33 148.67 C 519.12 151.13 526.49 151.62 533.66 151.25 C 533.46 145.58 529.60 140.98 526.52 136.51 C 523.28 132.54 520.21 127.83 515.22 125.94 M 583.65 140.77 C 581.20 141.50 578.92 144.19 580.00 146.81 C 581.42 150.77 584.15 154.07 586.52 157.50 C 589.11 161.30 594.00 161.95 598.18 162.63 C 598.67 160.79 599.57 158.93 599.06 156.99 C 598.21 151.19 596.68 144.89 592.12 140.85 C 589.77 138.61 586.29 139.82 583.65 140.77 Z" />
<path fill="#1b1b1b" opacity="1.00" d=" M 583.74 94.78 C 585.08 94.36 586.40 93.40 587.88 93.71 C 589.79 94.74 590.80 96.76 592.11 98.41 C 582.34 101.83 573.00 106.33 563.51 110.44 C 560.13 112.01 557.76 108.74 556.15 106.29 C 565.37 102.50 574.60 98.73 583.74 94.78 Z" />
<path fill="#1b1b1b" opacity="1.00" d=" M 399.91 222.92 C 403.75 218.14 410.18 216.65 416.05 217.19 C 422.65 216.85 429.46 221.74 429.97 228.60 C 428.65 228.94 427.33 229.24 426.00 229.49 C 424.78 226.47 423.14 223.19 419.82 222.07 C 414.40 220.24 407.41 220.97 403.65 225.69 C 400.12 230.16 399.86 236.22 400.55 241.64 C 401.23 246.59 404.78 251.14 409.71 252.41 C 415.38 254.52 421.53 252.33 426.26 249.03 C 426.20 246.47 426.21 243.92 426.11 241.37 C 422.29 241.41 418.47 241.40 414.65 241.35 C 414.62 239.96 414.61 238.57 414.63 237.19 C 420.03 237.22 425.43 237.27 430.84 237.15 C 430.73 241.99 430.82 246.84 430.74 251.69 C 426.12 254.93 420.80 257.65 415.01 257.52 C 407.70 257.74 399.95 253.88 397.06 246.90 C 393.81 239.20 394.67 229.54 399.91 222.92 Z" />
<path fill="#1b1b1b" opacity="1.00" d=" M 526.25 217.46 C 527.64 217.49 529.04 217.52 530.45 217.56 C 530.47 230.62 530.37 243.68 530.50 256.74 C 529.05 256.79 527.62 256.84 526.19 256.89 C 526.28 243.74 526.15 230.60 526.25 217.46 Z" />
<path fill="#1b1b1b" opacity="1.00" d=" M 498.66 217.58 C 500.18 217.54 501.71 217.55 503.24 217.61 C 503.26 230.67 503.25 243.72 503.24 256.78 C 501.71 256.79 500.18 256.80 498.65 256.81 C 498.65 243.73 498.64 230.66 498.66 217.58 Z" />
<path fill="#1b1b1b" opacity="1.00" d=" M 453.04 236.66 C 452.79 231.83 457.47 228.32 461.97 228.25 C 465.89 228.29 470.53 227.39 473.69 230.32 C 475.34 231.67 475.84 233.86 475.78 235.91 C 475.86 242.93 475.33 250.01 476.90 256.93 C 475.47 256.85 474.06 256.76 472.65 256.64 C 472.23 255.63 471.81 254.62 471.40 253.61 C 466.89 257.21 460.28 259.07 455.05 255.88 C 450.13 252.82 450.87 244.55 456.17 242.27 C 461.02 240.19 466.50 240.47 471.56 239.06 C 471.31 237.03 471.69 234.45 469.84 233.06 C 467.34 231.29 464.00 231.34 461.14 231.96 C 458.81 232.60 457.83 234.96 456.66 236.82 C 455.45 236.76 454.24 236.70 453.04 236.66 M 459.35 245.26 C 456.42 246.10 455.54 250.21 457.69 252.28 C 460.94 255.29 466.26 254.11 469.27 251.32 C 471.63 249.05 471.41 245.56 471.53 242.56 C 467.54 243.78 463.32 244.01 459.35 245.26 Z" />
<path fill="#1b1b1b" opacity="1.00" d=" M 555.55 231.54 C 558.99 227.65 564.68 227.66 569.37 228.65 C 575.43 230.83 577.90 237.79 577.38 243.77 C 570.33 243.62 563.28 243.70 556.24 243.72 C 556.17 248.56 559.63 254.12 565.00 253.71 C 568.63 254.17 571.11 251.15 572.52 248.21 C 574.04 248.22 575.56 248.27 577.09 248.36 C 575.30 258.98 559.32 260.59 553.98 251.99 C 550.43 245.77 550.76 237.04 555.55 231.54 M 556.39 240.20 C 561.82 240.23 567.25 240.22 572.68 240.21 C 572.67 235.95 569.63 231.36 565.00 231.55 C 560.18 231.15 556.59 235.70 556.39 240.20 Z" />
<path fill="#1b1b1b" opacity="1.00" d=" M 606.51 228.47 C 608.89 227.78 611.41 228.32 613.73 229.06 C 613.34 230.26 612.95 231.45 612.57 232.65 C 609.42 232.55 605.07 232.27 604.00 236.08 C 602.42 242.83 603.58 249.90 603.21 256.78 C 601.68 256.79 600.15 256.80 598.63 256.82 C 598.61 247.40 598.62 237.98 598.62 228.56 C 599.56 228.51 601.44 228.40 602.38 228.34 C 602.53 229.59 602.71 230.83 602.91 232.08 C 604.07 230.84 605.15 229.51 606.51 228.47 Z" />
<path fill="#1b1b1b" opacity="1.00" d=" M 629.30 228.38 C 630.93 228.43 632.56 228.49 634.20 228.57 C 636.76 236.14 639.61 243.62 642.11 251.22 C 644.93 243.66 647.42 235.97 650.35 228.44 C 651.81 228.44 653.27 228.43 654.75 228.43 C 650.94 238.77 647.19 249.14 643.37 259.48 C 642.18 262.36 641.10 265.57 638.49 267.49 C 636.25 268.09 633.89 267.72 631.61 267.74 C 631.50 266.63 631.37 265.52 631.24 264.42 C 633.23 264.16 635.34 264.13 637.16 263.15 C 638.84 260.87 640.53 257.78 639.23 254.93 C 635.89 246.09 632.58 237.24 629.30 228.38 Z" />
<path fill="#1b1b1b" opacity="1.00" d=" M 1.21 242.78 C 115.47 242.70 229.74 242.77 344.00 242.75 C 355.52 242.97 367.09 242.29 378.58 243.11 C 378.54 245.12 378.53 247.14 378.57 249.16 C 352.72 249.55 326.85 249.22 301.00 249.33 C 201.06 249.32 101.13 249.35 1.19 249.31 C 1.22 247.13 1.22 244.95 1.21 242.78 Z" />
<path fill="#1b1b1b" opacity="1.00" d=" M 659.73 242.79 C 761.15 242.68 862.57 242.78 964.00 242.75 C 988.32 242.86 1012.66 242.51 1036.97 242.92 C 1037.05 245.01 1037.05 247.09 1037.02 249.18 C 1000.68 249.52 964.34 249.23 928.00 249.33 C 838.57 249.30 749.14 249.38 659.71 249.29 C 659.70 247.12 659.71 244.95 659.73 242.79 Z" />
</g>
</svg>
