<svg id="Capa_1" enable-background="new 0 0 512 512" height="512" viewBox="0 0 512 512" width="512" xmlns="http://www.w3.org/2000/svg"><g><g><path d="m114.813 224.331c-17.948 0-32.498 14.55-32.498 32.497l-11.698 70.342 11.698 64.563c0 17.948 14.55 32.497 32.498 32.497 17.948 0 32.498-14.55 32.498-32.497v-134.905c-.001-17.948-14.55-32.497-32.498-32.497z" fill="#d65246"/><path d="m129.81 420.56c-4.49 2.35-9.59 3.67-15 3.67-17.95 0-32.49-14.55-32.49-32.5l-19.363-78.007 19.363-56.893c0-17.95 14.54-32.5 32.49-32.5 5.41 0 10.51 1.32 15 3.67-10.4 5.41-17.49 16.29-17.49 28.83v134.9c0 12.54 7.09 23.42 17.49 28.83z" fill="#d65246"/><g><path d="m431.383 488.106-148.517 4.544c-9.308 0-17.318-7.153-17.756-16.451-.468-9.927 7.443-18.123 17.267-18.123h130.02c9.547 0 21.817-8.423 21.817-17.97l-4.53-84.275c0-9.308 7.153-17.318 16.451-17.756 9.927-.468 18.123 7.443 18.123 17.267v104.895c.001 17.902-14.974 27.869-32.875 27.869z" fill="#7dd5f4"/></g><g><path d="m464.26 451.26v8.98c0 17.9-14.51 32.41-32.41 32.41h-148.98c-9.31 0-17.32-7.15-17.76-16.45-.18-3.79.86-7.33 2.78-10.26 2.92 5.8 9.1 9.71 15.98 9.71h148.98c15.13 0 27.84-10.37 31.41-24.39z" fill="#d3effd"/></g><path d="m464.26 355.34c0-6.224-3.3-11.672-8.238-14.714.003-.002.005-.004.008-.006-.391-.242-.795-.464-1.206-.674-.11-.056-.224-.105-.335-.159-.359-.174-.724-.335-1.096-.484-.151-.06-.301-.119-.454-.175-.398-.146-.802-.278-1.213-.395-.098-.028-.192-.062-.291-.088-.496-.132-1.002-.239-1.515-.327-.153-.026-.309-.045-.464-.067-.391-.056-.783-.099-1.176-.129-.168-.013-.334-.026-.503-.034-.541-.025-1.085-.033-1.638-.008-9.3.43-16.46 8.44-16.46 17.75v65.01 19.95c0 9.55-7.73 17.29-17.28 17.29h18c9.543 0 17.28-7.737 17.28-17.28v-25.665c0-1.908 1.086-3.65 2.799-4.49l13.781-6.755v-48.55z" fill="#d3effd"/><path d="m481.904 264.678-13.125-6.434c-1.889-.926-3.077-2.86-3.057-4.964.121-12.627-.07-22.815.01-24.579 0-31.738-7.068-61.855-19.712-88.86-33.39-71.314-121.148-118.754-204.85-119.224 0 0-191.742 94.277-191.1 209.495v22.686c0 2.416-1.324 4.634-3.454 5.776-4.127 2.213-7.15 6.953-8.196 7.614-7.485 3.67-12.23 11.28-12.23 19.616l-2.553 66.564c0 8.337 4.744 15.946 12.23 19.616l46.447 26.574c0-16.933 0-155.051 0-168.173 0-96.29 77.402-175.617 173.685-175.914 96.283.297 173.685 79.625 173.685 175.914v168.173l45.698-24.751c7.485-3.67 14.979-10.387 14.979-18.723l3.772-8.095v-62.695c.001-8.336-4.744-15.946-12.229-19.616z" fill="#d65246"/><path d="m397.187 224.331c17.948 0 32.498 14.55 32.498 32.497l8.645 71.704-8.645 63.201c0 17.948-14.55 32.497-32.498 32.497-17.948 0-32.498-14.55-32.498-32.497v-134.905c.001-17.948 14.55-32.497 32.498-32.497z" fill="#d65246"/><path d="m404.21 414.71c2.33 2.33 5.02 4.31 7.98 5.85-4.49 2.35-9.59 3.67-15 3.67-8.97 0-17.1-3.64-22.98-9.52s-9.52-14.01-9.52-22.98v-134.9c0-17.95 14.55-32.5 32.5-32.5 5.41 0 10.51 1.32 15 3.67-10.4 5.41-17.5 16.29-17.5 28.83v134.9c0 8.97 3.64 17.1 9.52 22.98z" fill="#d65246"/><path d="m446.02 139.84c-33.39-71.31-105.67-120.93-189.37-121.4v-.02c-82.37-.92-155.38 48.98-190.07 119.61-13.84 28.17-21.59 59.64-21.4 92.49v22.68c0 2.42-1.33 4.64-3.46 5.78-4.12 2.21-10.58 5.04-11.62 5.7-7.49 3.67-12.23 11.28-12.23 19.61v69.05c0 8.34 4.74 15.95 12.23 19.62l52.22 25.6v-20.49l-44.74-20.38c-1.65-.8-2.71-2.51-2.71-4.35v-69.05c.246-5.791 10.616-7.158 14.89-10.33 7.66-4.11 12.42-12.06 12.42-20.76v-22.68c-.169-25.499 4.875-50.623 14.78-74.28 1.094-2.614 4.512-3.282 6.511-1.274 3.584 3.601 7.633 7.36 11.769 9.004 25.89-63.81 87.92-109.27 160.76-109.5 73.15.23 135.4 46.07 161.08 110.31 8.13 20.32 12.6 42.47 12.6 65.61v168.17l52.22-25.6c7.49-3.67 12.23-11.28 12.23-19.62v-6.35l-38.715 19.827c-3.993 2.045-8.735-.855-8.735-5.34v-131.087c0-26.206-5.217-51.214-14.666-74.023-.645-1.557-.268-3.349.97-4.492z" fill="#d65246"/><path d="m100.404 143.563c4.91 4.91 13.152 4.069 16.859-1.803 8.367-13.252 18.587-25.224 30.293-35.547 28.794-25.394 66.578-40.819 107.898-40.819 39.396 0 75.579 14.022 103.819 37.338 13.697 11.309 25.526 24.804 34.947 39.946 3.635 5.843 11.639 7.013 16.696 2.346l26.916-24.836c3.944-3.64 4.652-9.611 1.67-14.074-15.324-22.931-34.815-42.851-57.382-58.668-35.904-25.165-79.591-39.946-126.666-39.946-53.92 0-103.396 19.392-141.819 51.569-15.439 12.928-29.094 27.92-40.535 44.548-2.984 4.336-2.46 10.184 1.262 13.905z" fill="#f9af38"/><path d="m415.88 140.44-4.96 4.58c-5.06 4.67-13.07 3.5-16.7-2.34-9.42-15.14-21.25-28.64-34.95-39.95-28.24-23.31-64.42-37.34-103.82-37.34-41.32 0-79.1 15.43-107.89 40.82-11.71 10.33-21.93 22.3-30.3 35.55-3.7 5.87-11.95 6.71-16.86 1.8l-5.93-5.93c10.85-14.08 31.11-38.7 39.86-46.42 33.5-29.54 76.52-45.82 121.12-45.82 42.43 0 83.82 14.89 116.56 41.92 11.62 9.6 33.17 38.22 43.87 53.13z" fill="#f48931"/><path d="m301.936 501.128-49.702.17c-5.523 0-10-4.477-10-10l-1.915-31.702c0-5.523 4.477-10 10-10l4.931-3.439h14.86l8.337 6.12 6.663-6.12h20.854c5.523 0 10 4.477 10 10v31.343l-4.028 3.628c0 5.523-4.477 10-10 10z" fill="#5f6c75"/><path d="m315.96 487.5v7c0 5.52-4.47 10-10 10h-56.71c-5.52 0-10-4.48-10-10v-38.34c0-5.53 4.48-10 10-10h6v31.34c0 5.52 4.48 10 10 10z" fill="#d65246"/><g><path d="m270.11 446.16h15v58.34h-15z" fill="#d65246"/></g></g><g><path d="m485.206 257.944-11.973-5.87c.087-8.458-.044-16.141 0-23.374 0-37.214-9.547-73.769-27.645-106.094 4.23-6.1 4.44-14.239.149-20.659-15.905-23.802-35.861-44.205-59.313-60.643-15.36-10.766-31.994-19.61-49.439-26.288-3.869-1.481-8.205.455-9.686 4.323-1.481 3.869.455 8.205 4.323 9.686 16.297 6.238 31.839 14.502 46.192 24.563 21.925 15.368 40.582 34.443 55.451 56.694.938 1.403.718 3.251-.521 4.394-1.137.9-26.184 24.463-27.699 25.38-.762.381-1.497.372-1.93.314-.611-.083-1.752-.408-2.527-1.654-9.847-15.827-22.141-29.879-36.541-41.768-30.504-25.184-69.07-39.054-108.594-39.054-41.561 0-81.641 15.162-112.859 42.694-12.288 10.836-22.944 23.342-31.674 37.168-.721 1.141-1.813 1.422-2.401 1.487-.615.07-1.797.033-2.813-.984l-26.041-26.042c-1.16-1.161-1.323-2.99-.387-4.351 11.041-16.045 24.22-30.529 39.171-43.05 38.364-32.124 87.02-49.816 137.005-49.816 13.748 0 27.505 1.32 40.89 3.924 4.065.791 8.003-1.864 8.794-5.93s-1.864-8.003-5.93-8.794c-14.326-2.787-29.047-4.2-43.754-4.2-53.5 0-105.576 18.936-146.635 53.318-15.991 13.392-30.088 28.885-41.898 46.047-4.523 6.574-4.243 15.195.404 21.43-7.448 12.776-13.6 26.242-18.306 40.113-1.331 3.922.771 8.181 4.693 9.512.799.271 1.611.399 2.41.399 3.125 0 6.042-1.969 7.102-5.092 3.94-11.613 8.982-22.919 15-33.737l16.016 16.017c-12.72 25.455-19.425 53.795-19.425 82.379v156.144l-41.417-20.306c-4.879-2.392-8.032-7.448-8.032-12.882v-69.048c0-5.434 3.153-10.49 8.032-12.882 2.532-1.354 7.641-3.582 11.869-5.822 4.57-2.451 7.409-7.197 7.409-12.386v-22.728c-.054-9.651.612-19.392 1.979-28.951.587-4.101-2.262-7.9-6.362-8.486-4.095-.588-7.899 2.262-8.486 6.362-1.472 10.288-2.188 20.771-2.131 31.117v22.119c-1.876 1.036-8.108 3.852-11.154 5.442-9.824 4.947-16.155 15.202-16.155 26.215v69.048c0 11.114 6.449 21.458 16.428 26.351l50.028 24.527c5.258 15.956 20.296 27.51 37.991 27.51 22.055 0 39.998-17.942 39.998-39.997v-134.905c0-22.055-17.943-39.998-39.998-39.998-9.418 0-18.08 3.28-24.922 8.747.708-24.792 6.874-49.248 17.985-71.317.765.009 1.534-.023 2.307-.11 5.555-.62 10.447-3.676 13.421-8.387 7.967-12.619 17.695-24.034 28.912-33.926 28.476-25.113 65.033-38.944 102.937-38.944 36.047 0 71.221 12.65 99.044 35.621 13.145 10.853 24.367 23.679 33.354 38.124 2.937 4.72 7.767 7.853 13.252 8.595.828.112 1.655.167 2.478.167.362 0 .721-.029 1.08-.05 10.767 21.777 16.751 45.85 17.448 70.227-6.842-5.468-15.504-8.748-24.923-8.748-22.055 0-39.998 17.943-39.998 39.998v22.493c0 4.142 3.358 7.5 7.5 7.5s7.5-3.358 7.5-7.5v-22.493c0-13.784 11.214-24.998 24.998-24.998s24.998 11.214 24.998 24.998v134.905c0 13.783-11.214 24.997-24.998 24.997s-24.998-11.214-24.998-24.997v-74.596c0-4.142-3.358-7.5-7.5-7.5s-7.5 3.358-7.5 7.5v74.596c0 22.055 17.943 39.997 39.998 39.997 9.453 0 18.144-3.303 24.998-8.807v17.866c0 5.396-4.391 9.787-9.787 9.787h-89.861c-2.337-6.919-8.875-11.92-16.572-11.92h-56.711c-9.649 0-17.5 7.851-17.5 17.5v38.345c0 9.649 7.851 17.5 17.5 17.5h56.711c7.67 0 14.189-4.968 16.546-11.85h48.693c4.142 0 7.5-3.358 7.5-7.5s-3.358-7.5-7.5-7.5h-47.739v-19.574h88.933c13.667 0 24.787-11.12 24.787-24.787v-37.554l19.574-9.596v66.598c0 13.737-11.176 24.913-24.913 24.913h-23.228c-4.142 0-7.5 3.358-7.5 7.5s3.358 7.5 7.5 7.5h23.228c22.008 0 39.913-17.905 39.913-39.913v-73.952l13.447-6.592c9.979-4.893 16.428-15.236 16.428-26.351v-69.048c0-11.114-6.449-21.457-16.428-26.35zm-370.393-26.113c13.784 0 24.998 11.214 24.998 24.998v134.905c0 13.783-11.214 24.997-24.998 24.997s-24.998-11.214-24.998-24.997v-134.906c0-13.784 11.214-24.997 24.998-24.997zm131.94 262.669v-38.343c0-1.378 1.122-2.5 2.5-2.5h20.855v43.343h-20.855c-1.378 0-2.5-1.122-2.5-2.5zm61.711 0c0 1.378-1.122 2.5-2.5 2.5h-20.855v-43.343h20.855c1.378 0 2.5 1.122 2.5 2.5zm178.17-141.157c0 5.434-3.153 10.49-8.032 12.882l-41.417 20.306c0-19.128 0-140.567 0-156.144 0-28.341-6.597-56.471-19.114-81.76l16.385-15.12c15.556 29.156 23.753 61.819 23.777 95.053-.054 6.228.096 14.581-.01 24.648-.047 4.965 2.8 9.585 7.255 11.77l13.125 6.435c4.879 2.392 8.032 7.448 8.032 12.882v69.048z"/><path d="m323.451 231.566c-.541-6.491-4.325-11.749-9.641-13.396-2.505-.776-8.993-1.767-15.141 5.778-5.717 7.015-34.445 58.917-40.146 69.25-1.282 2.323-1.241 5.151.108 7.436s3.805 3.687 6.458 3.687h43.307c-.056 7.958-.117 15.636-.175 22.45-.036 4.142 3.293 7.528 7.435 7.564h.066c4.111 0 7.463-3.315 7.498-7.436.023-2.663.097-11.396.177-22.579h5.554c4.142 0 7.5-3.358 7.5-7.5s-3.358-7.5-7.5-7.5h-5.454c.156-25.174.259-54.085-.046-57.754zm-14.954 57.755h-30.672c11.262-20.225 25.356-45.074 30.768-53.441.118 8.231.042 30.502-.096 53.441z"/><path d="m246.413 327.502c-.052-4.142-3.412-7.43-7.594-7.405-13.662.172-28.304.267-38.328.224 5.63-7.404 14.839-19.691 28.941-39.841 6.807-10.104 11.995-19.654 12.67-30.313 0-18.484-15.038-33.522-33.522-33.522-15.983 0-29.816 11.369-32.893 27.033-.798 4.064 1.85 8.006 5.914 8.805 4.065.796 8.007-1.85 8.805-5.914 1.698-8.647 9.342-14.924 18.174-14.924 10.066 0 18.283 8.073 18.517 18.084-.572 6.759-4.274 13.648-9.955 22.149-16.155 23.082-25.8 35.712-30.982 42.497-6.162 8.068-8.021 10.503-6.665 14.913.767 2.495 2.671 4.414 5.223 5.264 5.218 1.4 37.391.62 54.288.543 4.143-.052 7.459-3.451 7.407-7.593z"/></g></g></svg>