<svg height="512" viewBox="0 0 512 512" width="512" xmlns="http://www.w3.org/2000/svg"><g id="Flat"><path d="m144 136h224v240h-224z" fill="#f9a40f"/><path d="m144 136h224v104h-224z" fill="#ffb431"/><path d="m224 136h64v104h-64z" fill="#f88400"/><g fill="#ef7800"><path d="m288 240h-64v64l16-8 16 8 16-8 16 8z"/><path d="m328 336h16v16h-16z"/><path d="m296 336h16v16h-16z"/><path d="m264 336h16v16h-16z"/></g><path d="m256 24a231.888 231.888 0 0 0 -200.377 115.011l-18.023-9.127 11.56 63.453 56.124-29.181-21.042-10.656a199.883 199.883 0 0 1 171.758-97.5c110.457 0 200 89.543 200 200a201.705 201.705 0 0 1 -1.9 27.6l31.695 4.417a234.05 234.05 0 0 0 2.205-32.017c0-128.13-103.87-232-232-232z" fill="#d65246"/><path d="m460.454 314.3-52.454 35.109 20.593 7.687a199.9 199.9 0 0 1 -172.593 98.904c-110.457 0-200-89.543-200-200a201.705 201.705 0 0 1 1.905-27.6l-31.695-4.421a233.892 233.892 0 0 0 -2.21 32.021c0 128.13 103.87 232 232 232a231.924 231.924 0 0 0 202.967-119.566l20.268 7.566z" fill="#d65246"/></g></svg>