<svg id="Capa_1" enable-background="new 0 0 512 512" height="512" viewBox="0 0 512 512" width="512" xmlns="http://www.w3.org/2000/svg"><g><path d="m499.197 334.825c-.05.03-67.56 49.31-100.58 73.03-7.88 5.66-15.15 10.35-21.94 14.25-19.59 11.27-41.85 17.05-64.45 17.05h-153.01l-54.9-94.03 36.4-14.17c15.69-31.98 48.58-54.01 86.61-54.01 21.39 0 41.15 6.97 57.14 18.76 4.65 3.43 8.99 7.27 12.95 11.46h58.49c10.74 0 19.9 8.32 20.34 19.05.47 11.31-8.57 20.71-19.86 20.71h-76.84c-8.27 0-15 6.7-15 15 0 8.29 6.72 15 15 15h71.85c10.45 0 20.46-2.9 29.09-8.33 2.2-1.37 4.31-2.92 6.32-4.63 4.36-3.15 59.24-42.69 87.82-63.28 9.42-6.79 22.56-4.66 29.35 4.77 6.8 9.43 4.66 22.59-4.78 29.37z" fill="#d58678"/><path d="m356.385 346.925h-71.92v-51.22c4.65 3.43 8.99 7.27 12.95 11.46h58.97c10.97 0 19.88 8.91 19.88 19.88 0 10.943-8.872 19.88-19.88 19.88z" fill="#b95d4c"/><path d="m499.197 334.825c-.05.03-67.56 49.31-100.58 73.03-7.88 5.66-15.15 10.35-21.94 14.25-19.59 11.27-41.85 17.05-64.45 17.05h-27.76v-62.23h66.93c10.45 0 20.46-2.9 29.09-8.33 2.2-1.37 4.31-2.92 6.32-4.63 4.36-3.15 59.24-42.69 87.82-63.28 9.42-6.79 22.56-4.66 29.35 4.77 6.8 9.43 4.66 22.59-4.78 29.37z" fill="#b95d4c"/><g><path d="m425.458 126.66c0 69.84-56.81 126.66-126.65 126.66s-126.66-56.82-126.66-126.66 56.82-126.66 126.66-126.66 126.65 56.82 126.65 126.66z" fill="#fabe2c"/></g><path d="m425.458 126.66c0 69.84-56.81 126.66-126.65 126.66v-253.32c69.84 0 126.65 56.82 126.65 126.66z" fill="#ff9100"/><path d="m345.168 161.89v.14c.07 10.58-3.98 20.56-11.42 28.09-5.52 5.59-12.42 9.34-19.94 10.92v3.51c0 8.29-6.72 15-15 15-8.29 0-15-6.71-15-15v-3.46c-7.32-1.56-14.05-5.16-19.49-10.54-7.53-7.43-11.71-17.35-11.77-27.93-.05-8.28 6.62-15.04 14.9-15.09h.1c8.24 0 14.95 6.66 15 14.91.01 2.56 1.02 4.97 2.85 6.77 1.81 1.79 4.2 2.77 6.74 2.77h.06l6.61-.04 6.82-.04c2.57-.02 4.97-1.03 6.78-2.86 1.8-1.83 2.78-4.24 2.76-6.81v-.14c-.02-3-1.47-5.86-3.89-7.65l-12.47-9.23-30.33-22.44c-10.04-7.44-16.04-19.34-16.04-31.83 0-19.02 13.47-34.93 31.37-38.73v-3.44c0-8.29 6.71-15 15-15 8.28 0 15 6.71 15 15v3.46c17.85 3.83 31.28 19.73 31.28 38.71 0 8.28-6.72 15-15 15-8.29 0-15-6.72-15-15 0-5.29-4.31-9.6-9.6-9.6h-13.45c-5.29 0-9.6 4.31-9.6 9.6 0 3.03 1.45 5.91 3.89 7.71l12.48 9.24 30.32 22.44c9.96 7.37 15.96 19.16 16.04 31.56z" fill="#f0f7ff"/><path d="m305.488 81.34h-6.68v-47.57c8.28 0 15 6.71 15 15v3.46c17.85 3.83 31.28 19.73 31.28 38.71 0 8.28-6.72 15-15 15-8.29 0-15-6.72-15-15 0-5.29-4.31-9.6-9.6-9.6z" fill="#dfe7f4"/><path d="m345.168 161.89v.14c.07 10.58-3.98 20.56-11.42 28.09-5.52 5.59-12.42 9.34-19.94 10.92v3.51c0 8.29-6.72 15-15 15v-47.61l6.82-.04c2.57-.02 4.97-1.03 6.78-2.86 1.8-1.83 2.78-4.24 2.76-6.81v-.14c-.02-3-1.47-5.86-3.89-7.65l-12.47-9.23v-37.32l30.32 22.44c9.96 7.37 15.96 19.16 16.04 31.56z" fill="#dfe7f4"/><g><g><path d="m167.687 469.388-70.558 40.74c-2.199 1.267-4.603 1.873-6.97 1.873-4.836 0-9.533-2.507-12.123-6.989l-72.114-124.903c-3.858-6.69-1.565-15.235 5.116-19.102l70.558-40.73c3.215-1.854 7.026-2.358 10.604-1.398 3.588.96 6.635 3.299 8.489 6.513l72.114 124.902c3.857 6.691 1.574 15.236-5.116 19.094z" fill="#7dd5f4"/></g></g></g></svg>