<svg id="Capa_1" enable-background="new 0 0 512 512" height="512" viewBox="0 0 512 512" width="512" xmlns="http://www.w3.org/2000/svg"><g><path d="m256 375.838h-56.331v127.672c0 6.337 6.701 10.432 12.34 7.541l40.125-20.569c2.427-1.244 5.305-1.244 7.732 0l40.125 20.569c5.639 2.891 12.34-1.204 12.34-7.541v-127.672z" fill="#a6e7f0"/><path d="m312.331 375.834v127.674c0 6.339-6.701 10.438-12.338 7.547l-9.643-4.946c.836-1.291 1.332-2.849 1.332-4.574v-125.701z" fill="#6bd9e7"/><path d="m456.832 200.832c0 17.245-18.429 31.838-22.68 47.743-4.398 16.457 4.136 38.285-4.2 52.693-8.456 14.616-31.707 18.087-43.568 29.948s-15.333 35.112-29.948 43.568c-14.408 8.336-36.236-.199-52.692 4.2-15.905 4.251-30.498 22.681-47.743 22.681s-31.838-18.429-47.743-22.68c-16.457-4.399-38.285 4.136-52.693-4.2-14.616-8.456-18.087-31.707-29.948-43.568s-35.112-15.333-43.568-29.948c-8.336-14.408.199-36.236-4.2-52.692-4.251-15.905-22.681-30.498-22.681-47.743s18.429-31.838 22.68-47.743c4.399-16.457-4.136-38.285 4.2-52.693 8.456-14.616 31.707-18.087 43.568-29.948s15.333-35.112 29.948-43.568c14.408-8.336 36.236.199 52.692-4.2 15.906-4.253 30.499-22.682 47.744-22.682s31.838 18.429 47.743 22.68c16.457 4.399 38.285-4.136 52.693 4.2 14.616 8.456 18.087 31.707 29.948 43.568s35.112 15.333 43.568 29.948c8.336 14.408-.199 36.236 4.2 52.692 4.251 15.906 22.68 30.499 22.68 47.744z" fill="#fea613"/><path d="m434.155 248.57c-4.405 16.464 4.133 38.286-4.204 52.693-8.458 14.618-31.704 18.089-43.563 29.948-11.869 11.869-15.34 35.115-29.948 43.573-14.417 8.337-36.239-.201-52.693 4.204-15.912 4.244-30.5 22.674-47.747 22.674-5.418 0-10.575-1.816-15.581-4.445 15.029-3.07 50.222-31.291 64.498-35.114 16.454-4.394 29.299 2.72 43.707-5.618 14.618-8.448 11.096-27.089 22.955-38.948s34.08-15.729 40.009-26.34c8.119-14.531-4.706-27.612-.311-44.066 4.254-15.902 21.347-30.689 21.347-47.936s-15.969-27.166-20.223-43.068c-4.395-16.464 3.833-34.652-4.494-49.06-8.458-14.618-32.522-17.935-43.897-32.279-15.385-19.402-17.869-42.621-28.197-51.699 7.535-.211 14.708.371 20.628 3.792 14.608 8.458 18.079 31.704 29.948 43.563 11.859 11.869 35.105 15.34 43.563 29.948 8.337 14.407-.201 36.239 4.204 52.693 4.244 15.912 22.674 30.5 22.674 47.747-.001 17.248-18.431 31.836-22.675 47.738z" fill="#fb8801"/><circle cx="256" cy="200.832" fill="#fee45a" r="140.008"/><path d="m396.012 200.829c0 77.332-62.691 140.013-140.012 140.013-15.693 0-30.788-2.581-44.881-7.351 7.32 1.177 14.837 1.796 22.497 1.796 77.331 0 140.012-62.681 140.012-140.002 0-61.618-39.801-113.943-95.11-132.651 66.615 10.769 117.494 68.535 117.494 138.195z" fill="#fed402"/><g fill="#fea613"><path d="m159.631 163.353h-12.815c-4.142 0-7.5 3.358-7.5 7.5s3.358 7.5 7.5 7.5h5.315v52.459c0 4.142 3.358 7.5 7.5 7.5s7.5-3.358 7.5-7.5v-59.959c0-4.143-3.358-7.5-7.5-7.5z"/><path d="m349.042 159.168c-3.817-1.602-8.215.193-9.818 4.013l-29.167 69.497c-1.603 3.819.194 8.215 4.014 9.818.948.398 1.932.586 2.899.586 2.93 0 5.714-1.728 6.919-4.6l29.167-69.497c1.602-3.818-.195-8.214-4.014-9.817z"/><ellipse cx="308.204" cy="173.782" rx="10.276" ry="10.276" transform="matrix(.924 -.383 .383 .924 -43.043 131.173)"/><circle cx="354.908" cy="227.883" r="10.276"/><path d="m201.491 162.129c-13.696 0-24.839 11.143-24.839 24.839v27.729c0 13.696 11.143 24.839 24.839 24.839s24.838-11.143 24.838-24.839v-27.729c.001-13.697-11.142-24.839-24.838-24.839zm9.839 52.568c0 5.425-4.414 9.839-9.838 9.839-5.425 0-9.839-4.414-9.839-9.839v-27.729c0-5.425 4.414-9.839 9.839-9.839s9.838 4.414 9.838 9.839z"/><path d="m261.205 162.129c-13.696 0-24.839 11.143-24.839 24.839v27.729c0 13.696 11.143 24.839 24.839 24.839 13.695 0 24.838-11.143 24.838-24.839v-27.729c0-13.697-11.143-24.839-24.838-24.839zm9.838 52.568c0 5.425-4.413 9.839-9.838 9.839s-9.839-4.414-9.839-9.839v-27.729c0-5.425 4.414-9.839 9.839-9.839s9.838 4.414 9.838 9.839z"/></g></g></svg>