<?xml version="1.0" encoding="UTF-8" ?>
<!DOCTYPE svg PUBLIC "-//W3C//DTD SVG 1.1//EN" "http://www.w3.org/Graphics/SVG/1.1/DTD/svg11.dtd">
<svg width="1192pt" height="600pt" viewBox="0 0 1192 1123" version="1.1" xmlns="http://www.w3.org/2000/svg">
<g id="#d6181aff">
<path fill="#d6181a" opacity="1.00" d=" M 303.20 0.00 L 307.82 0.00 C 310.72 0.19 313.49 1.56 315.25 3.89 C 320.03 9.98 324.84 16.11 330.51 21.40 C 333.01 23.55 335.64 26.01 339.07 26.40 C 341.95 26.64 343.75 22.20 346.69 24.28 C 352.64 30.74 362.24 30.41 369.61 34.42 C 372.58 35.78 374.04 38.89 375.52 41.61 C 379.54 49.83 379.80 59.15 381.76 67.94 C 383.74 78.37 388.12 88.22 394.08 96.98 C 410.17 121.45 428.36 144.46 446.39 167.52 C 493.55 226.81 542.30 284.86 593.16 341.03 C 608.47 357.64 623.73 374.37 640.51 389.54 C 647.35 395.51 655.41 401.87 665.03 401.32 C 674.17 400.55 682.05 395.27 689.46 390.29 C 705.29 379.04 719.80 366.08 734.47 353.37 C 763.81 327.84 791.78 300.78 819.69 273.70 C 849.76 244.43 879.51 214.82 909.02 184.99 C 932.93 160.94 956.06 136.13 980.37 112.48 C 997.51 95.87 1014.81 79.25 1034.16 65.19 C 1044.61 57.82 1055.99 50.77 1068.92 49.10 C 1077.65 48.49 1086.64 49.13 1094.93 52.12 C 1100.03 54.04 1105.24 57.49 1106.75 63.03 C 1108.04 67.91 1105.57 72.64 1104.11 77.18 C 1096.26 97.52 1086.82 117.19 1077.58 136.92 C 1053.98 186.51 1029.30 235.58 1004.54 284.60 C 996.25 300.55 989.19 317.53 976.82 330.89 C 973.42 334.36 969.91 338.44 964.96 339.49 C 962.14 339.88 960.86 336.78 960.74 334.49 C 960.27 327.69 960.45 320.60 957.76 314.21 C 956.83 311.95 954.63 309.88 952.02 310.37 C 946.25 311.40 941.96 316.35 936.08 317.02 C 932.47 317.49 930.36 314.11 927.80 312.26 C 923.45 308.55 917.71 305.92 911.90 307.10 C 904.06 308.68 897.40 313.46 891.03 318.03 C 877.78 327.98 865.57 339.22 853.29 350.33 C 822.54 378.52 791.79 406.80 763.42 437.42 C 757.55 443.92 751.52 450.34 746.58 457.60 C 744.30 460.77 744.57 464.97 745.55 468.56 C 747.46 475.28 751.11 481.32 754.84 487.16 C 764.95 502.40 776.84 516.34 788.75 530.18 C 820.90 566.94 854.60 602.32 887.77 638.15 C 916.90 669.41 945.90 700.79 974.61 732.43 C 1000.57 761.16 1026.56 789.87 1051.69 819.34 C 1091.04 865.13 1129.25 911.88 1167.18 958.85 C 1172.38 965.57 1178.60 971.42 1183.86 978.10 C 1184.64 978.85 1184.99 979.78 1184.88 980.88 C 1175.94 975.65 1168.38 968.32 1159.97 962.42 C 1168.94 969.94 1177.80 977.66 1186.21 985.83 C 1187.93 987.78 1190.27 989.35 1191.21 991.87 L 1192.00 991.30 L 1192.00 993.00 C 1182.49 987.86 1174.02 980.93 1164.92 975.10 C 1162.12 973.50 1159.63 970.98 1156.44 970.36 C 1158.47 977.39 1165.76 982.02 1167.10 989.34 C 1165.30 989.94 1163.92 988.18 1162.53 987.39 C 1153.93 980.41 1146.37 972.27 1138.55 964.47 C 1135.98 962.21 1133.91 959.13 1130.88 957.59 C 1130.24 960.24 1131.77 962.71 1132.78 965.07 C 1138.09 975.52 1145.01 985.04 1150.73 995.26 C 1151.79 997.31 1153.08 999.36 1153.18 1001.76 C 1148.52 998.19 1144.62 993.67 1140.33 989.65 C 1111.23 960.78 1082.46 931.56 1053.35 902.69 C 1050.20 899.81 1047.39 896.49 1044.04 893.90 C 1046.55 897.59 1050.02 900.60 1052.96 903.98 C 1084.98 937.98 1117.36 971.65 1149.71 1005.33 C 1153.91 1007.68 1158.65 1009.34 1162.10 1012.86 C 1163.56 1013.94 1163.52 1016.03 1162.94 1017.61 C 1158.66 1015.38 1155.27 1011.26 1150.98 1009.33 C 1157.09 1014.79 1163.88 1019.44 1169.92 1024.99 C 1172.85 1028.09 1176.20 1031.27 1177.50 1035.43 C 1169.96 1030.97 1163.54 1024.82 1156.58 1019.52 C 1143.02 1008.08 1129.01 997.02 1114.95 986.09 C 1110.64 982.90 1106.56 979.31 1101.92 976.63 C 1097.95 976.20 1095.22 973.06 1092.28 970.70 C 1080.58 960.39 1069.53 949.38 1058.40 938.48 C 1027.07 907.53 996.20 876.10 964.47 845.55 C 951.52 833.47 939.24 820.36 924.06 811.01 C 913.32 804.05 901.45 799.00 890.81 791.93 C 903.75 807.30 918.39 821.52 929.48 838.44 C 931.90 842.17 934.33 846.39 933.57 851.04 C 933.09 854.26 933.25 857.79 935.42 860.43 C 959.01 893.94 983.03 927.17 1005.30 961.59 C 1011.63 971.80 1018.43 981.88 1022.81 993.12 C 1023.38 995.09 1024.85 998.52 1022.13 999.46 C 1016.46 997.90 1010.07 1000.39 1004.82 997.21 C 1001.92 996.15 998.36 998.06 997.61 1001.09 C 996.34 1006.08 997.77 1011.32 999.90 1015.88 C 1002.33 1021.21 1006.70 1025.26 1010.01 1030.01 C 1029.85 1056.57 1049.30 1083.42 1068.49 1110.46 C 1070.83 1114.49 1074.53 1118.19 1075.00 1123.00 L 1074.73 1123.00 C 1061.39 1110.69 1050.39 1096.09 1039.18 1081.86 C 1027.38 1066.89 1016.84 1050.97 1004.81 1036.19 C 956.73 975.88 906.58 917.26 855.74 859.28 C 830.18 830.18 804.38 801.30 778.36 772.62 C 739.94 730.43 701.24 688.48 661.16 647.86 C 649.33 636.04 637.54 624.13 624.83 613.24 C 621.99 611.06 619.32 608.37 615.87 607.23 C 612.77 607.89 610.27 610.12 607.61 611.74 C 591.46 623.01 576.19 635.49 560.90 647.89 C 501.97 696.34 445.08 747.25 389.77 799.78 C 361.58 826.56 334.02 853.99 306.89 881.84 C 261.74 927.71 216.88 973.87 171.42 1019.44 C 152.66 1038.02 133.94 1056.69 114.01 1074.03 C 104.57 1082.06 94.88 1089.98 83.95 1095.93 C 81.38 1097.25 78.81 1098.71 75.95 1099.32 C 67.44 1100.67 58.74 1096.56 50.40 1099.49 C 47.33 1100.46 45.16 1102.92 43.10 1105.25 C 33.45 1103.86 22.77 1104.30 14.40 1098.58 C 6.01 1091.72 5.40 1079.91 3.98 1069.97 C 1.67 1045.64 1.09 1021.17 0.00 996.78 L 0.00 982.26 C 0.61 967.74 2.83 952.85 10.24 940.09 L 11.04 940.04 C 14.00 950.69 15.24 961.76 18.16 972.43 L 19.14 972.36 C 19.85 957.23 17.91 942.11 17.36 927.00 C 17.49 919.77 21.19 913.16 25.78 907.79 C 36.50 895.54 50.49 886.83 64.00 878.01 C 95.13 858.51 126.91 840.03 157.16 819.15 C 174.47 807.23 191.33 794.66 208.32 782.28 C 269.65 737.14 330.34 691.13 390.37 644.29 C 420.76 620.43 451.18 596.58 480.52 571.44 C 489.99 562.98 500.58 554.82 505.81 542.87 C 508.59 536.52 506.61 529.36 503.42 523.58 C 497.91 513.50 490.41 504.72 483.07 495.95 C 446.19 453.48 406.88 413.20 368.82 371.80 C 367.46 371.59 366.88 373.25 365.82 373.81 C 357.53 380.83 349.26 387.86 340.97 394.89 C 332.21 402.45 322.78 409.50 315.89 418.94 C 311.31 425.27 306.51 431.59 300.07 436.15 C 297.58 438.34 294.23 439.39 290.94 439.00 C 282.40 438.11 274.89 431.79 271.86 423.86 C 268.55 414.14 266.85 403.89 262.44 394.56 C 247.19 359.61 231.44 324.85 217.75 289.25 C 212.66 270.48 209.54 251.22 207.52 231.89 C 206.33 221.26 205.57 210.57 203.93 200.00 C 202.80 193.13 201.31 186.15 197.88 180.02 C 195.03 175.15 191.61 170.46 190.12 164.94 C 189.40 161.40 190.22 157.73 191.45 154.40 C 193.67 148.67 199.31 145.04 204.97 143.33 C 210.45 143.01 215.53 146.88 221.03 145.52 C 225.00 144.24 226.14 139.68 226.95 136.07 C 229.01 124.47 228.10 112.53 226.16 100.97 C 223.75 86.42 216.76 73.26 211.48 59.64 C 210.15 56.02 208.86 51.95 210.29 48.16 C 211.77 44.60 214.89 42.12 217.85 39.81 C 232.58 28.99 248.51 19.82 265.06 12.06 C 277.20 6.52 289.85 1.54 303.20 0.00 M 1141.85 1000.94 C 1141.29 1005.03 1145.34 1007.85 1147.11 1011.18 C 1147.84 1011.36 1149.29 1011.73 1150.01 1011.92 C 1148.30 1008.97 1146.86 1005.89 1145.14 1002.96 C 1144.51 1001.83 1143.46 999.60 1141.85 1000.94 Z" />
<path fill="#d6181a" opacity="1.00" d=" M 1101.52 979.36 C 1101.80 978.55 1102.35 978.07 1103.17 977.93 C 1106.32 982.80 1110.75 986.92 1114.31 991.60 C 1122.15 1001.20 1130.02 1010.81 1137.03 1021.06 C 1138.21 1023.06 1139.88 1024.96 1140.10 1027.39 C 1136.48 1026.49 1133.87 1023.30 1130.96 1021.08 C 1125.52 1016.19 1120.10 1011.25 1114.96 1006.05 C 1110.29 997.25 1106.33 988.06 1101.52 979.36 Z" />
</g>
</svg>
